<svg width="40" height="20" viewBox="0 0 40 20" xmlns="http://www.w3.org/2000/svg">
<path d="M3.42468 14.2175C3.42468 13.6159 3.67737 13.303 4.17072 13.303C4.67611 13.303 4.9288 13.6039 4.9288 14.2175C4.9288 14.8192 4.67611 15.132 4.17072 15.132C3.67737 15.132 3.42468 14.8312 3.42468 14.2175ZM11.8357 4.66339C12.5697 4.66339 13.1954 4.79576 13.7249 5.06048C14.2543 5.32521 14.7356 5.78246 15.1568 6.4202H15.217C15.1809 5.63806 15.1568 4.87999 15.1568 4.12191V0.5H16.0713V14.9395H15.4696L15.241 13.3993H15.1688C14.3987 14.5545 13.3037 15.12 11.8598 15.12C10.4639 15.12 9.40505 14.6868 8.67104 13.8205C7.93703 12.9541 7.56401 11.6906 7.56401 10.0301C7.56401 8.28531 7.925 6.94965 8.65901 6.02312C9.38098 5.12065 10.4399 4.66339 11.8357 4.66339ZM11.8357 5.49367C10.7287 5.49367 9.91043 5.87872 9.35692 6.64883C8.8034 7.41894 8.52665 8.55003 8.52665 10.018C8.52665 12.8819 9.63367 14.3018 11.8598 14.3018C13.0029 14.3018 13.8332 13.9649 14.3626 13.303C14.8921 12.6412 15.1568 11.5462 15.1568 10.0301V9.88569C15.1568 8.32141 14.8921 7.20234 14.3747 6.51647C13.8452 5.83059 13.0029 5.49367 11.8357 5.49367ZM25.5773 14.9395L25.3487 13.3391H25.2765C24.7711 13.9889 24.2417 14.4462 23.7122 14.7229C23.1707 14.9877 22.545 15.132 21.811 15.132C20.8243 15.132 20.0542 14.8794 19.5007 14.374C18.9472 13.8686 18.6704 13.1586 18.6704 12.2682C18.6704 11.2815 19.0795 10.5234 19.8978 9.96992C20.716 9.42844 21.9073 9.13965 23.4595 9.10355L25.3848 9.04338V8.36954C25.3848 7.4069 25.1923 6.68493 24.7952 6.19158C24.4101 5.69823 23.7724 5.45757 22.906 5.45757C21.9674 5.45757 21.0048 5.72229 20.0061 6.23971L19.6571 5.44554C20.7641 4.92812 21.8591 4.66339 22.9421 4.66339C24.0491 4.66339 24.8794 4.95219 25.4209 5.52977C25.9744 6.10735 26.2391 6.99778 26.2391 8.22514V14.9395H25.5773ZM21.8712 14.2897C22.9421 14.2897 23.7964 13.9769 24.4221 13.3632C25.0479 12.7495 25.3607 11.8952 25.3607 10.8002V9.80146L23.5798 9.88569C22.16 9.95789 21.1492 10.1745 20.5475 10.5475C19.9459 10.9205 19.6451 11.5101 19.6451 12.2923C19.6451 12.918 19.8376 13.4113 20.2227 13.7603C20.6197 14.1213 21.1612 14.2897 21.8712 14.2897ZM27.8395 4.85592H28.7901L30.9199 10.5234C31.5697 12.2682 31.9788 13.4354 32.1593 14.037H32.2195C32.4842 13.2429 32.9054 12.0516 33.495 10.4633L35.6248 4.85592H36.5754L32.051 16.576C31.69 17.5266 31.3772 18.1764 31.1365 18.5013C30.8838 18.8382 30.595 19.0909 30.2702 19.2473C29.9332 19.4158 29.5361 19.5 29.0669 19.5C28.7179 19.5 28.3208 19.4398 27.8876 19.3075V18.5133C28.2486 18.6096 28.6337 18.6577 29.0428 18.6577C29.3557 18.6577 29.6324 18.5855 29.8731 18.4291C30.1137 18.2726 30.3303 18.044 30.5228 17.7432C30.7154 17.4303 30.944 16.937 31.1967 16.2631C31.4494 15.5893 31.6178 15.1441 31.69 14.9395L27.8395 4.85592Z" fill="#767676"/>
</svg>