<svg version="1.1" id="Layer_1" xmlns="http://www.w3.org/2000/svg" xmlns:xlink="http://www.w3.org/1999/xlink" x="0px" y="0px" width="40.5px" height="20px" viewBox="0 0 40.5 20" style="enable-background:new 0 0 40.5 20;" xml:space="preserve">
<style type="text/css">
	.st0{fill:#767676;}
</style>
<g>
	<path class="st0" d="M15.8,10.8c0-1.2-0.6-1.8-1.6-1.8s-1.6,0.6-1.6,1.8v4h-1.8V7.4h1.8v1c0.5-0.6,1.3-1,2.2-1&#xA;&#9;&#9;c1.7,0,2.9,1.1,2.9,3.1v3.7c0,0.3-0.3,0.6-0.6,0.6h-1.3C15.8,14.8,15.8,10.8,15.8,10.8z"/>
	<path class="st0" d="M18.9,5.1h1.8v9.3c0,0.2-0.2,0.4-0.4,0.4h-1.5V5.1H18.9z"/>
	<path class="st0" d="M22,7.9h1.8v6.5c0,0.2-0.2,0.4-0.4,0.4H22V7.9z"/>
	<path class="st0" d="M30.3,10.8c0-1.2-0.6-1.8-1.6-1.8s-1.6,0.6-1.6,1.8v4h-1.8V7.4H27v1c0.5-0.6,1.3-1,2.2-1&#xA;&#9;&#9;c1.7,0,2.9,1.1,2.9,3.1v3.6c0,0.4-0.3,0.6-0.6,0.6h-1.2C30.3,14.7,30.3,10.8,30.3,10.8z"/>
	<path class="st0" d="M5.8,7.3c-2.1,0-3.7,1.5-3.7,3.8v0.1c0.9,0.3,1.6,1.1,1.6,2.2c0,0.3-0.1,0.6-0.2,0.8c0.6,0.4,1.4,0.7,2.2,0.7&#xA;&#9;&#9;c2.1,0,3.8-1.5,3.8-3.8C9.6,8.8,7.9,7.3,5.8,7.3z M5.8,13.2c-1,0-1.8-0.7-1.8-2.2s0.9-2.2,1.8-2.2c1,0,1.9,0.7,1.9,2.2&#xA;&#9;&#9;C7.7,12.5,6.7,13.2,5.8,13.2z"/>
	<circle class="st0" cx="1.5" cy="13.2" r="1.5"/>
	<circle class="st0" cx="22.9" cy="6" r="1.1"/>
	<path class="st0" d="M36.9,14.8c-2.1,0-3.6-1.5-3.6-3.8s1.5-3.8,3.6-3.8s3.6,1.4,3.6,3.6c0,0.2,0,0.5-0.1,0.7h-5.3&#xA;&#9;&#9;c0.1,1.1,0.8,1.7,1.7,1.7c0.6,0,1-0.2,1.2-0.5c0.2-0.2,0.5-0.3,0.7-0.3h1.5C39.9,13.8,38.7,14.8,36.9,14.8z M35.1,10.4h3.5&#xA;&#9;&#9;c0-1-0.8-1.6-1.7-1.6C36,8.8,35.3,9.4,35.1,10.4z"/>
	<path class="st0" d="M40.5,17.8"/>
</g>
</svg>