<svg xmlns="http://www.w3.org/2000/svg" width="32.329" height="20" viewBox="0 0 32.329 20"><defs><style>.a{fill:#767676;}</style></defs><path class="a" d="M31.734,12.584a1.986,1.986,0,0,1,.049,2.785,1.931,1.931,0,0,1-2.729.073l-.023-.023c-.017-.016-.033-.033-.049-.05l-2.564-2.6-2.564,2.6a1.931,1.931,0,0,1-2.731.023l-.022-.023a1.987,1.987,0,0,1,0-2.787l2.564-2.594L21.1,7.392a1.987,1.987,0,0,1,.049-2.786,1.929,1.929,0,0,1,2.7,0L26.419,7.2l2.563-2.6a1.929,1.929,0,0,1,2.728-.07l.024.023a1.987,1.987,0,0,1,.049,2.786l-.049.049-2.564,2.6ZM14.51,4.03a5.03,5.03,0,0,0-3.152,1.11,5.052,5.052,0,0,0-7.1.783L4.2,5.99a5.2,5.2,0,0,0-1.1,3.2v1.842A3.229,3.229,0,0,1,4.467,15.85,1.942,1.942,0,0,0,6.9,14.579l0-.018A2.006,2.006,0,0,0,7,13.976V9.186a1.206,1.206,0,0,1,2.412,0v4.785a1.947,1.947,0,0,0,3.89.164c0-.021,0-.043,0-.065V9.186a1.207,1.207,0,0,1,2.413,0v4.785a1.946,1.946,0,1,0,3.889.164c0-.021,0-.043,0-.065V9.186a5.136,5.136,0,0,0-5.1-5.161"/><path class="a" d="M3.807,14a1.938,1.938,0,0,1-1.926,1.949,1.95,1.95,0,0,1,0-3.9A1.938,1.938,0,0,1,3.807,14h0"/></svg>